  <?xml version="1.0" encoding="UTF-8" standalone="no"?>
<!-- Created with Inkscape (http://www.inkscape.org/) -->

<svg
   xmlns:dc="http://purl.org/dc/elements/1.1/"
   xmlns:cc="http://creativecommons.org/ns#"
   xmlns:rdf="http://www.w3.org/1999/02/22-rdf-syntax-ns#"
   xmlns:svg="http://www.w3.org/2000/svg"
   xmlns="http://www.w3.org/2000/svg"
   xmlns:sodipodi="http://sodipodi.sourceforge.net/DTD/sodipodi-0.dtd"
   xmlns:inkscape="http://www.inkscape.org/namespaces/inkscape"
   width="744.09448"
   height="1052.1"
   id="svg2987"
   version="1.1"
   inkscape:version="0.91 r13725"
   sodipodi:docname="MetrodentFinal.svg">
  <defs
     id="defs2989" />
  <sodipodi:namedview
     id="base"
     pagecolor="#ffffff"
     bordercolor="#666666"
     borderopacity="1.0"
     inkscape:pageopacity="0.0"
     inkscape:pageshadow="2"
     inkscape:zoom="1.4142136"
     inkscape:cx="511.58901"
     inkscape:cy="561.64176"
     inkscape:document-units="in"
     inkscape:current-layer="layer2"
     showgrid="false"
     units="in"
     inkscape:window-width="1366"
     inkscape:window-height="705"
     inkscape:window-x="-8"
     inkscape:window-y="-8"
     inkscape:window-maximized="1" />
  <metadata
     id="metadata2992">
    <rdf:RDF>
      <cc:Work
         rdf:about="">
        <dc:format>image/svg+xml</dc:format>
        <dc:type
           rdf:resource="http://purl.org/dc/dcmitype/StillImage" />
        <dc:title></dc:title>
      </cc:Work>
    </rdf:RDF>
  </metadata>
  <g
     inkscape:groupmode="layer"
     id="layer2"
     inkscape:label="Layer"
     style="display:inline">
    <g
       id="g3431">
      <path
         sodipodi:nodetypes="sccscsssssccccsscsssssssscssssssscs"
         inkscape:connector-curvature="0"
         id="path3033"
         d="m 332.46646,476.8181 c -6.56162,-0.86668 -13.13199,-1.22809 -19.69798,-1.38896 6.49393,-7.66551 12.22422,-15.9992 16.03617,-26.01143 0,0 0.62952,-6.41447 2.39912,-8.9651 2.28924,-3.29962 11.36421,-7.32361 11.36421,-7.32361 27.57388,-8.82832 57.78169,-13.83214 85.23162,-17.17259 7.70238,-0.93732 20.55687,-0.83702 21.84455,-2.02031 11.40819,-10.48335 26.0428,-20.14097 38.16187,-25.69647 6.5712,-3.0123 12.93771,-4.55114 16.42739,-4.97259 9.16823,-1.10726 23.28511,-0.84866 27.67922,-0.27586 35.33199,4.60577 61.97461,12.65776 91.69195,20.09736 l -0.0221,-1.58132 c -31.23049,-9.98379 -61.3737,-22.93892 -94.65391,-25.3001 -12.03913,-0.81658 -21.2684,-0.36873 -30.89285,0.53571 -5.52284,0.46632 -16.18957,2.5835 -19.26777,4.2461 -17.53714,9.47219 -41.94129,24.94458 -48.71937,27.36104 -6.64778,2.37002 -7.51478,1.84964 -11.14167,2.70921 -3.02849,0.10884 -6.23681,-0.32845 -9.08548,0.70532 0,0 -4.75235,2.28264 -7.32143,2.6569 -20.53034,2.99086 -34.8463,4.0228 -53.57143,7.67857 -2.67633,0.52251 -8.24895,5.98922 -8.92857,6.25 0,0 -10.11289,3.74372 -15.35714,5.89286 -3.84957,1.57759 -7.44049,3.99762 -10.35714,6.96429 -3.10786,3.16116 -6.02252,6.89591 -7.23215,11.16071 -0.28231,0.99533 -0.53413,1.82168 -0.26785,2.67857 0.30081,0.96799 1.96428,2.32143 1.96428,2.32143 0,0 0.62288,7.6112 0,11.33929 -0.16596,0.99331 -0.46737,1.99156 -0.98214,2.85714 -0.74294,1.24924 -1.71876,2.43622 -2.94643,3.21429 -0.76332,0.48377 -1.791,0.37999 -2.58929,0.80357 -0.50502,0.26797 -1.09162,0.55615 -1.33928,1.07143 -0.21917,0.45601 -0.31384,1.121 0,1.51785 0.72093,0.91162 2.19416,0.77754 3.39286,0.80357 6.12958,0.13312 18.39285,0.0893 18.39285,0.0893 4.91953,0.004 12.84618,-1.84222 9.78789,-2.24617 z"
         style="fill:#ff0000;stroke:none;stroke-width:1px;stroke-linecap:butt;stroke-linejoin:miter;stroke-opacity:1" />
      <path
         sodipodi:nodetypes="ccscsssccscccccccccccssccccccccccccccc"
         inkscape:connector-curvature="0"
         id="path3344"
         d="m 623.48214,401.47498 c 6.04167,0.84752 12.08333,0.81905 18.125,0 4.3244,-1.38248 12.42572,-5.2255 14.19643,-5.35715 l 24.01785,-2.23214 -0.44642,9.10715 c -0.0485,0.98949 -0.88728,1.8194 -1.60715,2.5 0,0 -3.7576,2.70768 -4.91071,4.64285 -1.35623,2.27604 -2.05357,7.67857 -2.05357,7.67857 -0.20367,1.04167 -0.30221,2.08333 -0.26786,3.125 l 11.25,12.5 c 0.60292,0.66991 0.80357,2.41072 0.80357,2.41072 l -0.17857,8.30357 c 0.0852,0.45907 1.29106,0.31836 1.25,0.71429 l -0.074,3.35989 c -0.0306,1.01015 -1.59228,0.42615 -1.67027,1.02593 l -0.14113,4.49447 c 0.0302,0.86402 2.47524,0.38643 2.4265,1.26624 l -0.005,3.69275 c -0.16547,2.04547 -0.52034,3.69636 -1.96428,5 l -2.32143,1.875 c -1.27232,0.99703 -31.78572,7.10566 -32.94643,7.41072 0,0 -0.34493,1.29009 -0.71428,1.07142 -1.06761,-0.63208 0.20918,-3.84821 0.80357,-4.46428 0.40445,-0.4192 24.64285,-4.19643 24.64285,-4.19643 0.83334,-0.18601 3.25149,-1.5997 3.30358,-2.23214 l 0.17857,-6.33929 c 0.067,-1.36161 -1.76339,-2.79018 -1.875,-4.55357 l -0.0893,-14.64286 c -0.007,-0.63244 0.69941,-0.12649 0.71429,-0.625 l -0.067,-4.10714 c 0.004,-0.62981 -3.18261,-1.98436 -4.24107,-2.9241 l -3.54911,-3.77233 c -0.92262,-0.87797 -3.63095,-0.41666 -3.57142,-1.96428 l 0.31249,-4.28572 c 0.11905,-1.44345 1.8006,-1.12351 1.80804,-2.09821 0,-0.82589 0.35715,-1.6741 -0.40178,-1.96428 -12.92785,-5.94572 -27.04967,-9.23817 -41.00447,-12.90179 z"
         style="fill:#000000;fill-rule:evenodd;stroke:none;stroke-width:1px;stroke-linecap:butt;stroke-linejoin:miter;stroke-opacity:1" />
      <path
         sodipodi:nodetypes="cccccccccccccccc"
         inkscape:connector-curvature="0"
         id="path3346"
         d="m 348.875,471.72498 0.125,-37.375 11.375,0 -0.0205,3.10447 c 5.08257,-5.76278 13.08431,-5.63811 17.28033,0.20803 4.46191,-5.90028 11.20507,-5.7068 15.82323,0.39292 l 0.042,33.66958 -11.125,0.125 -0.17456,-30.32322 c -0.70407,-1.85048 -3.97433,-1.97461 -5.07544,-0.0518 l 0,30.5 -11.65625,0 0.0312,-30.125 c -0.64583,-2.28125 -4.35417,-2.1875 -5.125,0 l -0.1875,29.96875 z"
         style="fill:#ff0000;fill-rule:evenodd;stroke:none;stroke-width:1px;stroke-linecap:butt;stroke-linejoin:miter;stroke-opacity:1" />
      <path
         inkscape:connector-curvature="0"
         d="m 411.5,447.92223 -0.0625,-5.9375 c 0.45833,-1.91667 3.16667,-1.45833 3.25,0.0625 l 0,5.875 z m -12.47395,17.17459 -0.21783,-22.97024 c 5.67094,-13.47325 28.40439,-9.07149 28.63783,1.76776 l -0.0518,10.07627 -16.0349,0 0,10.77266 c 0.9279,2.52441 3.73079,2.61131 4.65869,0.26072 l 0.1875,-8.02817 11.35476,-0.0107 -0.0928,8.31923 c -2.56381,9.375 -22.81513,11.1875 -28.44144,-0.1875 z"
         style="display:inline;fill:#ff0000;fill-rule:evenodd;stroke:none;stroke-width:1px;stroke-linecap:butt;stroke-linejoin:miter;stroke-opacity:1"
         id="path3350"
         transform="translate(0,-0.25975)" />
      <path
         sodipodi:nodetypes="cccsccccccccccccc"
         inkscape:connector-curvature="0"
         id="path3352"
         d="m 449.375,472.23473 -0.003,-5.69476 -2.62153,-0.0552 c -0.81917,0.0161 -1.03062,-0.55704 -1.03125,-1.04688 l -0.0312,-24.20312 3.34375,5e-5 0,-5.625 -3.4375,0 0,-6.3125 -12.71875,-0.0625 -0.0312,6.09375 -2.46875,0.0312 0,5.96875 2.5,0.0312 0.17266,27 c 0.0821,1.74915 2.65496,3.78193 4.70234,3.875 z"
         style="display:inline;fill:#ff0000;fill-rule:evenodd;stroke:none;stroke-width:1px;stroke-linecap:butt;stroke-linejoin:miter;stroke-opacity:1"
         transform="translate(0,-0.25975)" />
      <path
         sodipodi:nodetypes="cccccccccc"
         inkscape:connector-curvature="0"
         id="path3354"
         d="m 452.37156,472.35539 -0.0884,-37.9186 12.37437,-0.0884 0.0571,3.52389 c 2.34758,-1.48146 4.38169,-2.88446 7.57551,-3.25152 l 0.10822,12.24281 -4.38399,1.09845 c -2.29319,0.87459 -3.23922,1.50945 -3.26853,3.71047 l -0.0486,20.63175 z"
         style="display:inline;fill:#ff0000;fill-rule:evenodd;stroke:none;stroke-width:1px;stroke-linecap:butt;stroke-linejoin:miter;stroke-opacity:1"
         transform="translate(0,-0.25975)" />
      <path
         inkscape:connector-curvature="0"
         d="m 487.5625,464.23473 0,-21.375 c 0,-3.22565 4.8125,-3.16737 4.6875,0.0625 l -0.125,21.3125 c 0.0861,3.18984 -4.705,3.07368 -4.5625,0 z m -12.4375,-18.625 0,16.375 c -0.21583,14.1286 29.22846,14.33499 29.25,1.5 l -0.125,-20.875 c -0.42266,-12.06324 -29.07137,-13.13957 -29.125,3 z"
         style="display:inline;fill:#ff0000;fill-rule:evenodd;stroke:none;stroke-width:1px;stroke-linecap:butt;stroke-linejoin:miter;stroke-opacity:1"
         id="path3358"
         transform="translate(0,-0.25975)" />
      <path
         inkscape:connector-curvature="0"
         d="m 532.53979,466.07982 0.0884,-25.13262 c -0.039,-0.68747 5.53995,-0.62503 5.48008,0 l -0.17678,25.30939 c 0.11097,2.14491 -5.47304,2.18407 -5.3917,-0.17677 z m -11.41479,-1.03259 0.125,-22.1875 c -0.30642,-4.16298 3.23235,-9.45531 7.3125,-8.6875 0,0 0.24138,-0.0881 2.1875,0.3125 2.56809,0.52861 7.25,2.5 7.25,2.5 l 0,-10.5625 11.75,0.0625 -0.0937,45.79956 -11.71875,0.0129 0,-2.25 -5.6875,2.1875 c -5.81263,2.23563 -10.95173,-2.39357 -11.125,-7.1875 z"
         style="display:inline;fill:#000000;fill-rule:evenodd;stroke:none;stroke-width:1px;stroke-linecap:butt;stroke-linejoin:miter;stroke-opacity:1"
         id="path3362"
         transform="translate(0,-0.25975)" />
      <path
         inkscape:connector-curvature="0"
         d="m 567.39196,447.98 -0.0625,-5.9375 c 0.45833,-1.91667 3.16667,-1.45833 3.25,0.0625 l 0,5.875 z m -12.47395,17.17459 -0.21783,-22.97024 c 5.67094,-13.47325 28.40439,-9.07149 28.63783,1.76776 l -0.0518,10.07627 -16.0349,0 0,10.77266 c 0.9279,2.52441 3.73079,2.61131 4.65869,0.26072 l 0.1875,-8.02817 11.35476,-0.0107 -0.0928,8.31923 c -2.56381,9.375 -22.81513,11.1875 -28.44144,-0.1875 z"
         style="display:inline;fill:#000000;fill-rule:evenodd;stroke:none;stroke-width:1px;stroke-linecap:butt;stroke-linejoin:miter;stroke-opacity:1"
         id="path3350-2"
         transform="translate(0,-0.25975)" />
      <path
         sodipodi:nodetypes="cccccccccccc"
         inkscape:connector-curvature="0"
         id="path3392"
         d="m 588.875,472.23473 0,-36.625 10.71339,0.0442 0.0366,1.91162 c 1.37543,0.0241 2.15045,0.1328 2.60225,-0.41985 2.43707,-3.10858 11.07814,-3.59176 14.02275,0.58904 l 0.25,34.375 -10.625,0 -0.125,-30 c -1.03932,-2.38909 -5.60751,-2.21583 -6.25,0.375 l 0,29.625 z"
         style="display:inline;fill:#000000;fill-rule:evenodd;stroke:none;stroke-width:1px;stroke-linecap:butt;stroke-linejoin:miter;stroke-opacity:1"
         transform="translate(0,-0.25975)" />
      <path
         sodipodi:nodetypes="cccsccccccccccccc"
         inkscape:connector-curvature="0"
         id="path3352-3"
         d="m 639.17636,472.36091 -0.003,-5.69476 -2.62153,-0.0552 c -0.81917,0.0161 -1.03062,-0.55704 -1.03125,-1.04688 l -0.0312,-24.20312 3.34375,5e-5 0,-5.625 -3.4375,0 0,-6.3125 -12.71875,-0.0625 -0.0312,6.09375 -2.46875,0.0312 0,5.96875 2.5,0.0312 0.17266,27 c 0.0821,1.74915 2.65496,3.78193 4.70234,3.875 z"
         style="display:inline;fill:#000000;fill-rule:evenodd;stroke:none;stroke-width:1px;stroke-linecap:butt;stroke-linejoin:miter;stroke-opacity:1"
         transform="translate(0,-0.25975)" />
      <path
         inkscape:connector-curvature="0"
         id="path3409"
         d="m 309.00566,489.23756 0,-1.32582 185.26198,-0.44194 0,1.85615 z"
         style="display:inline;fill:#000000;fill-rule:evenodd;stroke:#000000;stroke-width:1px;stroke-linecap:butt;stroke-linejoin:miter;stroke-opacity:1"
         transform="translate(0,-0.25975)" />
      <path
         sodipodi:nodetypes="ccccc"
         inkscape:connector-curvature="0"
         id="path3411"
         d="m 495.03725,487.44927 0.0625,1.85524 183.75401,-0.024 -0.0312,-1.89905 z"
         style="display:inline;fill:#d40000;fill-rule:evenodd;stroke:#ff0000;stroke-width:1px;stroke-linecap:butt;stroke-linejoin:miter;stroke-opacity:1"
         transform="translate(0,-0.25975)" />
    </g>
  </g>
</svg>
